<svg width="681" height="234" xmlns="http://www.w3.org/2000/svg"><g fill="none" fill-rule="evenodd"><path d="M321.718 91.05c16.902 0 28.31 7.605 28.31 23.521v48.17H335.24V152.46c-2.254 4.225-9.296 11.69-23.381 11.69-13.663 0-24.086-6.76-24.086-19.578 0-13.944 10.282-19.578 30.142-22.395 12.536-1.69 17.325-3.24 17.325-9.296 0-6.056-5.353-9.718-13.1-9.718-10.14 0-15.07 4.93-15.774 13.944h-15.212c.422-12.959 9.578-26.058 30.564-26.058zm-6.338 61.832c9.578 0 19.86-6.62 19.86-20.423v-4.507c-3.803 2.113-9.015 3.38-15.071 4.507-11.69 2.113-16.62 5.212-16.62 11.409 0 6.197 5.211 9.014 11.831 9.014zm80.243-2.817h8.31v12.677h-12.677c-13.662 0-23.38-8.451-23.38-24.085v-34.65h-13.24v-11.69h13.24V76.12l15.915-2.817v19.015h17.888v11.69h-17.888v32.818c0 8.874 3.944 13.24 11.832 13.24zm46.104 0h8.31v12.677H437.36c-13.662 0-23.38-8.451-23.38-24.085v-34.65h-13.24v-11.69h13.24V76.12l15.915-2.817v19.015h17.888v11.69h-17.888v32.818c0 8.874 3.944 13.24 11.832 13.24zm66.659-57.748h15.775v70.425h-15.775v-19.578c-3.099 9.577-10.423 20.986-25.917 20.986-14.225 0-22.817-8.45-22.817-27.747V92.317h15.916v39.72c0 12.958 3.24 19.014 12.254 19.014 10.704 0 20.564-11.409 20.564-37.325V92.317zm72.636-1.408c14.085 0 22.677 8.45 22.677 27.747v44.086h-15.916v-39.72c0-12.958-3.24-19.014-12.254-19.014-10.704 0-20.564 11.408-20.564 37.325v21.409H539.19V92.317h15.775v19.578c3.38-9.578 10.141-20.986 26.057-20.986zm84.188 48.733h15.07c-1.83 13.381-12.112 24.508-31.972 24.508-23.381 0-35.212-16.62-35.212-36.62 0-20.142 11.831-36.48 33.944-36.48 20.705 0 32.818 13.38 32.818 37.465v2.817h-50.987c.986 13.522 8.45 20.564 19.719 20.564 9.437 0 15.07-4.507 16.62-12.254zm-17.888-36.761c-10.282 0-16.339 6.76-18.029 18.17h34.79c-1.127-11.269-6.479-18.17-16.761-18.17z" fill="#002737" fill-rule="nonzero"/><path d="M134 0l13.346 13.19L134 152.775 120.66 13.19 134 0zM0 229.163l4.876-17.981L134 152.776 18.218 234 0 229.163zm268 0l-18.205 4.83L134 152.776l129.138 58.399L268 229.163zM82.595 78.928l16.324 2.987 35.08 70.86-54.43-57.73 3.026-16.117zm12.333 154.726l-5.542-15.451 44.612-65.427-23.421 75.406-15.65 5.472zm129.544-87.909l-10.781 12.464-79.693-5.433 77.85-17.676 12.624 10.645zm-180.943 0L56.153 135.1l77.85 17.676-79.692 5.434-10.782-12.465zm129.545 87.91l-15.65-5.472-23.42-75.407 44.611 65.427-5.541 15.452zm12.333-154.727l3.025 16.118-54.429 57.73 35.08-70.86 16.324-2.988z" fill="#00D2D0"/></g></svg>