<svg id="_x33_0" enable-background="new 0 0 64 64" height="512" viewBox="0 0 64 64" width="512" xmlns="http://www.w3.org/2000/svg" xmlns:xlink="http://www.w3.org/1999/xlink"><linearGradient id="SVGID_1_" gradientUnits="userSpaceOnUse" x1="32" x2="32" y1="63" y2="1"><stop offset="0" stop-color="#9f2fff"/><stop offset="1" stop-color="#0bb1d3"/></linearGradient><path d="m58 14c-.028 0-.054.008-.081.008.042-.334.081-.669.081-1.008 0-4.411-3.589-8-8-8-1.114 0-2.176.23-3.14.644-1.573-2.847-4.544-4.644-7.86-4.644-3.704 0-6.891 2.251-8.27 5.456-3.119-3.446-7.58-5.456-12.276-5.456h-.907c-9.124 0-16.547 7.423-16.547 16.546 0 3.743 1.288 7.414 3.626 10.336l4.193 5.242-.227.454c-.387.777-.592 1.645-.592 2.511 0 1.5.584 2.909 1.644 3.969l.318.318-.086.945-2.722.907c-3.681 1.227-6.154 4.658-6.154 8.538v12.234h34v-3.196l1.22 1.22 1.456-1.456c.551-.552 1.376-.712 2.141-.393.719.297 1.183.992 1.183 1.77v2.055h6v-2.055c0-.778.464-1.473 1.222-1.786.725-.303 1.551-.143 2.102.409l1.457 1.455 4.243-4.244-1.456-1.456c-.551-.551-.711-1.376-.393-2.141.297-.718.992-1.182 1.77-1.182h2.055v-6h-2.055c-.778 0-1.473-.464-1.786-1.222-.303-.726-.143-1.551.409-2.102l1.455-1.456-4.244-4.244-1.456 1.456c-.552.551-1.378.709-2.141.393-.718-.297-1.182-.992-1.182-1.77v-1.055-1-11h11c2.757 0 5-2.243 5-5s-2.243-5-5-5zm-51.812 12.634c-2.056-2.57-3.188-5.797-3.188-9.088 0-8.021 6.525-14.546 14.546-14.546h.907c4.576 0 8.887 2.183 11.63 5.837-.049.382-.083.768-.083 1.163 0 .698.089 1.383.245 2.053-2.604.329-4.689 2.329-5.146 4.891l-3.623.906-3.476-5.794-3.476 5.794-4.357-1.089-1.259 8.812 4.092 2.045v11.382h-1.586l-.356-.356c-.682-.683-1.058-1.59-1.058-2.555 0-.558.132-1.116.381-1.616l.799-1.598zm34.812 9.366v1.055c0 .778-.464 1.473-1.222 1.786-.725.303-1.551.143-2.102-.409l-1.456-1.455-4.244 4.244 1.456 1.456c.551.551.711 1.376.393 2.141-.113.275-.291.512-.509.703-1.079-1.505-2.622-2.676-4.469-3.292l-2.722-.907-.086-.945.318-.318c1.06-1.06 1.644-2.47 1.644-3.969 0-.866-.205-1.734-.592-2.51l-.227-.454 4.193-5.242c.947-1.183 1.712-2.491 2.302-3.883h7.323v11zm-23 14.891-1.018-1.891h2.036zm3-24.509v6.618h-2v-6h-2v6h-2v-6.618l-3.908-1.954.741-5.188 3.643.911 2.524-4.207 2.524 4.206 3.643-.911.741 5.188zm-6 8.618h6v4h-6zm8.326 6-1.077 2h-8.498l-1.077-2zm-3.231 6h-4.19l-1.077-2h6.344zm-8.4-3.6 2.835 5.266-3.402.972zm12.61 0 .567 6.238-3.402-.972zm5.508-16.766-4.993 6.241.799 1.598c.25.5.381 1.059.381 1.616 0 .965-.376 1.873-1.058 2.555l-.356.356h-1.586v-11.382l4.092-2.046-.503-3.519c1.097 1.194 2.666 1.947 4.411 1.947h.48c-.462.932-1.014 1.817-1.667 2.634zm-26.813 24.132c0-3.018 1.923-5.687 4.787-6.641l1.891-.631-.806 8.867 6.629-1.894 1.414 2.625-2.636 7.908h-5.279v-5.236l-1.105-2.211-1.789.895.894 1.788v4.764h-4zm15 5.397 1.612 4.837h-3.225zm15 4.837h-4v-4.764l.895-1.789-1.789-.895-1.106 2.212v5.236h-5.279l-2.635-7.906 1.414-2.625 6.629 1.894-.806-8.867 1.891.631c2.863.953 4.786 3.622 4.786 6.639zm14.452-20.314c1.477.615 3.159.287 4.287-.84l.042-.042 1.416 1.416-.042.042c-1.127 1.127-1.457 2.81-.827 4.318.606 1.47 2.027 2.42 3.618 2.42h.054v2h-.055c-1.591 0-3.012.95-3.631 2.452-.616 1.477-.287 3.16.84 4.287l.042.042-1.416 1.416-.042-.042c-1.127-1.127-2.811-1.458-4.318-.827-1.47.606-2.42 2.026-2.42 3.617v.055h-2v-.055c0-1.591-.95-3.012-2.452-3.631-1.478-.616-3.16-.287-4.287.84l-.042.042-1.219-1.22v-6.21c0-1.229-.25-2.412-.706-3.495.604-.426 1.096-1.006 1.392-1.722.616-1.477.287-3.16-.84-4.287l-.042-.042 1.416-1.416.042.042c1.126 1.127 2.81 1.456 4.318.827 1.47-.606 2.42-2.027 2.42-3.618v-.055h2v.055c0 1.591.95 3.011 2.452 3.631zm-2.452-5.686h-2v-11h2zm13-13h-27c-2.206 0-4-1.794-4-4s1.794-4 4-4 4 1.794 4 4h2c0-2.846-1.993-5.23-4.656-5.843-.225-.694-.344-1.416-.344-2.157 0-3.86 3.14-7 7-7 2.598 0 4.922 1.42 6.138 3.661-1.686 1.296-2.846 3.242-3.088 5.465-1.746.43-3.05 1.997-3.05 3.874h2c0-1.103.897-2 2-2s2 .897 2 2h2c0-1.834-1.248-3.368-2.935-3.838.41-2.912 2.911-5.162 5.935-5.162 3.309 0 6 2.691 6 6 0 .526-.086 1.04-.22 1.543-1.64.822-2.78 2.501-2.78 4.457h2c0-1.654 1.346-3 3-3s3 1.346 3 3-1.346 3-3 3zm-17 27c0 1.654 1.346 3 3 3s3-1.346 3-3-1.346-3-3-3-3 1.346-3 3zm4 0c0 .551-.449 1-1 1s-1-.449-1-1 .449-1 1-1 1 .449 1 1zm-8 0c0 3.86 3.14 7 7 7s7-3.14 7-7-3.14-7-7-7-7 3.14-7 7zm12 0c0 2.757-2.243 5-5 5s-5-2.243-5-5 2.243-5 5-5 5 2.243 5 5zm0-19v-2h2v2zm4 0v-2h2v2zm6-2v2h-2v-2z" fill="url(#SVGID_1_)"/></svg>