<svg xmlns="http://www.w3.org/2000/svg" xmlns:xlink="http://www.w3.org/1999/xlink" version="1.1" id="Layer_1" x="0px" y="0px" width="187.8px" height="253.538px" viewBox="0 0 187.8 253.538" enable-background="new 0 0 187.8 253.538" xml:space="preserve">
<path fill-rule="evenodd" clip-rule="evenodd" fill="#33cafe94" d="M187.8,39.396l-75.896,81.706l-69.432,73.58L0,155.307L145.315,0  L187.8,39.396z"/>
<g>
	<g>
		<path fill="#227d96" d="M59.598,207.261c0-0.347-0.281-0.628-0.628-0.628c-0.348,0-0.628,0.281-0.628,0.628    s0.28,0.629,0.628,0.629C59.316,207.89,59.598,207.608,59.598,207.261z M89.904,240.551c-2.052,0-3.722,1.67-3.722,3.721    c0,2.053,1.67,3.722,3.722,3.722c2.051,0,3.721-1.669,3.721-3.722C93.625,242.221,91.955,240.551,89.904,240.551z M89.904,246.339    c-1.14,0-2.067-0.927-2.067-2.067c0-1.139,0.928-2.066,2.067-2.066c1.139,0,2.066,0.928,2.066,2.066    C91.971,245.413,91.043,246.339,89.904,246.339z M111.608,242.475c0-0.567-0.46-1.027-1.029-1.027    c-0.568,0-1.029,0.46-1.029,1.027c0,0.57,0.461,1.031,1.029,1.031C111.148,243.506,111.608,243.045,111.608,242.475z     M59.578,209.118c-0.347,0-0.628,0.281-0.628,0.627c0,0.348,0.281,0.629,0.628,0.629c0.348,0,0.629-0.281,0.629-0.629    C60.207,209.399,59.926,209.118,59.578,209.118z M111.569,245.519c-0.568,0-1.029,0.46-1.029,1.028s0.461,1.03,1.029,1.03    s1.029-0.462,1.029-1.03S112.138,245.519,111.569,245.519z M107.56,245.519c-0.568,0-1.029,0.46-1.029,1.028    s0.461,1.03,1.029,1.03s1.029-0.462,1.029-1.03S108.128,245.519,107.56,245.519z M57.175,207.238c0-0.347-0.281-0.628-0.628-0.628    s-0.628,0.281-0.628,0.628c0,0.348,0.281,0.628,0.628,0.628S57.175,207.585,57.175,207.238z M107.615,242.516    c0-0.569-0.461-1.029-1.03-1.029c-0.568,0-1.029,0.46-1.029,1.029c0,0.568,0.461,1.029,1.029,1.029    C107.154,243.545,107.615,243.084,107.615,242.516z M57.132,209.118c-0.347,0-0.628,0.281-0.628,0.627    c0,0.348,0.281,0.629,0.628,0.629s0.628-0.281,0.628-0.629C57.76,209.399,57.479,209.118,57.132,209.118z M65.143,202.42H37.302    c-1.282,0-2.147,1.043-2.147,2.325v6.927c0,0.742,0.354,1.396,0.896,1.821c-0.542,0.427-0.896,1.079-0.896,1.821v5.943    c0,0.741,0.354,1.395,0.896,1.82c-0.542,0.426-0.896,1.08-0.896,1.82v6.301c0,1.281,1.043,2.324,2.325,2.324h27.662    c1.282,0,2.325-1.043,2.325-2.324v-6.301c0-0.741-0.355-1.395-0.896-1.82c0.542-0.426,0.896-1.079,0.896-1.82v-5.943    c0-0.742-0.354-1.395-0.896-1.821c0.542-0.425,0.896-1.079,0.896-1.819v-6.929C67.467,203.463,66.424,202.42,65.143,202.42z     M65.692,230.386c0,0.726-0.591,1.315-1.316,1.315H38.275c-0.725,0-1.315-0.59-1.315-1.314v-4.68c0-0.727,0.591-1.316,1.315-1.316    h26.101c0.726,0,1.316,0.59,1.316,1.316V230.386z M65.692,221.258c0,0.726-0.591,1.316-1.316,1.316h-26.05    c-0.726,0-1.315-0.59-1.315-1.316v-5.943c0-0.727,0.59-1.316,1.315-1.316h26.05c0.726,0,1.316,0.59,1.316,1.316V221.258z     M65.692,210.866c0,0.725-0.591,1.315-1.316,1.315H38.494c-0.723-0.005-1.483-0.594-1.483-1.315v-5.288    c0-0.726,0.59-1.316,1.315-1.316h26.05c0.726,0,1.316,0.591,1.316,1.316V210.866z M115.564,245.519    c-0.569,0-1.029,0.46-1.029,1.028s0.46,1.03,1.029,1.03c0.568,0,1.029-0.462,1.029-1.03S116.133,245.519,115.564,245.519z     M119.574,245.519c-0.568,0-1.029,0.46-1.029,1.028s0.461,1.03,1.029,1.03s1.029-0.462,1.029-1.03    S120.143,245.519,119.574,245.519z M77.104,176.108c-0.033,6.248,5.024,11.357,11.273,11.391    c6.25,0.033,11.36-5.023,11.394-11.271c0.028-5.349-3.517-10.018-9.187-11.175l-0.094-39.806c0.008-1.444-1.157-2.621-2.603-2.628    l-16.595-0.092c-1.444-0.007-2.621,0.035-2.629,1.48s1.157,1.479,2.602,1.487l16.399,0.078l-0.154,39.56    C80.981,165.29,77.132,170.76,77.104,176.108z M88.482,167.524c4.769,0.026,8.628,3.926,8.603,8.693    c-0.025,4.767-3.925,8.625-8.693,8.6s-8.627-3.925-8.603-8.691C79.814,171.358,83.715,167.5,88.482,167.524z M123.623,242.554    c0-0.569-0.461-1.029-1.03-1.029c-0.568,0-1.029,0.46-1.029,1.029s0.461,1.03,1.029,1.03    C123.162,243.584,123.623,243.124,123.623,242.554z M62.02,209.118c-0.347,0-0.628,0.281-0.628,0.627    c0,0.348,0.281,0.629,0.628,0.629c0.348,0,0.629-0.281,0.629-0.629C62.648,209.399,62.367,209.118,62.02,209.118z M62.049,207.309    c0-0.347-0.281-0.628-0.628-0.628s-0.628,0.281-0.628,0.628c0,0.348,0.281,0.629,0.628,0.629S62.049,207.657,62.049,207.309z     M115.634,242.437c0-0.567-0.461-1.028-1.029-1.028s-1.029,0.461-1.029,1.028c0,0.569,0.461,1.03,1.029,1.03    S115.634,243.006,115.634,242.437z M123.575,245.519c-0.568,0-1.029,0.46-1.029,1.028s0.461,1.03,1.029,1.03    c0.569,0,1.03-0.462,1.03-1.03S124.145,245.519,123.575,245.519z M119.605,242.475c0-0.567-0.461-1.027-1.03-1.027    c-0.568,0-1.029,0.46-1.029,1.027c0,0.57,0.461,1.031,1.029,1.031C119.145,243.506,119.605,243.045,119.605,242.475z     M54.695,209.118c-0.348,0-0.629,0.281-0.629,0.627c0,0.348,0.281,0.629,0.629,0.629c0.347,0,0.628-0.281,0.628-0.629    C55.323,209.399,55.042,209.118,54.695,209.118z M59.598,226.776c0-0.347-0.281-0.628-0.628-0.628    c-0.348,0-0.628,0.281-0.628,0.628c0,0.348,0.28,0.629,0.628,0.629C59.316,227.405,59.598,227.124,59.598,226.776z     M57.132,228.632c-0.347,0-0.628,0.28-0.628,0.627c0,0.348,0.281,0.629,0.628,0.629s0.628-0.281,0.628-0.629    C57.76,228.913,57.479,228.632,57.132,228.632z M57.175,226.752c0-0.348-0.281-0.628-0.628-0.628s-0.628,0.28-0.628,0.628    s0.281,0.629,0.628,0.629S57.175,227.1,57.175,226.752z M41.477,215.965c-1.252,0-2.271,1.02-2.271,2.271    c0,1.25,1.019,2.27,2.271,2.27s2.271-1.02,2.271-2.27C43.747,216.985,42.729,215.965,41.477,215.965z M41.477,219.498    c-0.695,0-1.262-0.565-1.262-1.261c0-0.697,0.566-1.262,1.262-1.262s1.261,0.564,1.261,1.262    C42.737,218.932,42.172,219.498,41.477,219.498z M62.049,226.823c0-0.346-0.281-0.627-0.628-0.627s-0.628,0.281-0.628,0.627    c0,0.348,0.281,0.629,0.628,0.629S62.049,227.17,62.049,226.823z M62.02,228.632c-0.347,0-0.628,0.28-0.628,0.627    c0,0.348,0.281,0.629,0.628,0.629c0.348,0,0.629-0.281,0.629-0.629C62.648,228.913,62.367,228.632,62.02,228.632z M59.578,228.632    c-0.347,0-0.628,0.28-0.628,0.627c0,0.348,0.281,0.629,0.628,0.629c0.348,0,0.629-0.281,0.629-0.629    C60.207,228.913,59.926,228.632,59.578,228.632z M105.001,176.254c-0.032,6.249,5.024,11.359,11.274,11.393    c6.249,0.032,11.36-5.023,11.394-11.272c0.028-5.348-4.17-9.814-9.156-11.024l0.041-40.091c0.008-1.444-1.157-2.621-2.602-2.628    l-16.761-0.091c-1.444-0.008-2.509,0.076-2.517,1.521s1.045,1.476,2.489,1.484l16.496-0.012l-0.117,39.746    C110.164,165.356,105.029,170.907,105.001,176.254z M116.367,167.641c4.769,0.024,8.627,3.924,8.603,8.691    c-0.025,4.768-3.926,8.625-8.693,8.6c-4.769-0.025-8.628-3.925-8.603-8.691C107.699,171.473,111.6,167.616,116.367,167.641z     M54.695,228.632c-0.348,0-0.629,0.28-0.629,0.627c0,0.348,0.281,0.629,0.629,0.629c0.347,0,0.628-0.281,0.628-0.629    C55.323,228.913,55.042,228.632,54.695,228.632z M52.506,160.551l7.372,0.01c1.444,0.008,2.657-1.088,2.664-2.533l0.021-32.927    c0.008-1.444-1.157-2.569-2.602-2.577l-7.823,0.056c-17.041,0-28.781-14.091-28.706-28.524    c0.066-12.455,9.161-24.354,21.375-26.709c2.376-0.452,3.073-1.934,3.225-3.045c2.788-9.858,7.861-14.161,17.823-14.912    c2.384-0.179,5.105,0.501,7.282,1.456c1.233,0.542,2.677,0.058,3.334-1.117c7.88-14.076,23.655-22.782,39.768-23.06    c23.06-0.397,45.072,19.304,45.072,43.413c0.004,1.208-0.218,4.417,3.421,5.048c10.458,2.478,16.984,12.087,16.984,22.844    c0,13.588-12.062,24.724-25.102,24.724l-1.804-0.252c-1.444-0.007-2.306,0.447-2.313,1.892c-0.008,1.444,1.018,1.252,2.462,1.259    l1.423,0.008c15.56,0.083,28.286-11.906,28.368-27.462c0.033-6.414-2.146-12.702-6.135-17.708    c-3.502-4.394-8.671-7.502-13.989-9.185c-0.534-12.381-5.212-24.116-14.02-32.941c-9.285-9.304-21.639-14.465-34.784-14.535    c-17.263-0.091-32.756,9.704-41.815,24.291c-2.182-0.7-4.978-1.939-7.3-1.951c-10.684-0.057-19.911,7.436-22.181,17.701    c-13.74,3.486-23.854,15.938-23.93,30.272c-0.091,17.316,14.193,31.353,31.514,31.445l7.453,0.031l-0.019,32.057l-6.913-0.029    c-0.615-6.527-5.773-10.406-11.122-10.436c-6.25-0.032-11.36,5.024-11.394,11.273c-0.033,6.247,5.024,11.357,11.273,11.391    C46.74,169.846,51.295,165.536,52.506,160.551z M32.599,158.315c0.025-4.766,3.926-8.625,8.693-8.6    c4.769,0.025,8.628,3.924,8.603,8.691s-3.925,8.626-8.693,8.601C36.433,166.983,32.574,163.083,32.599,158.315z M41.477,225.602    c-1.252,0-2.271,1.018-2.271,2.27s1.019,2.271,2.271,2.271s2.271-1.019,2.271-2.271S42.729,225.602,41.477,225.602z     M41.477,229.133c-0.695,0-1.262-0.566-1.262-1.262s0.566-1.261,1.262-1.261s1.261,0.565,1.261,1.261    S42.172,229.133,41.477,229.133z M54.719,226.776c0-0.347-0.281-0.628-0.628-0.628s-0.628,0.281-0.628,0.628    c0,0.348,0.281,0.629,0.628,0.629S54.719,227.124,54.719,226.776z M52.282,226.799c0-0.346-0.281-0.627-0.628-0.627    c-0.348,0-0.628,0.281-0.628,0.627c0,0.348,0.28,0.629,0.628,0.629C52.001,227.428,52.282,227.147,52.282,226.799z     M52.282,217.611c0-0.347-0.281-0.628-0.628-0.628c-0.348,0-0.628,0.281-0.628,0.628s0.28,0.629,0.628,0.629    C52.001,218.24,52.282,217.958,52.282,217.611z M52.282,207.286c0-0.348-0.281-0.629-0.628-0.629    c-0.348,0-0.628,0.281-0.628,0.629s0.28,0.628,0.628,0.628C52.001,207.914,52.282,207.633,52.282,207.286z M52.248,219.444    c-0.347,0-0.628,0.281-0.628,0.627c0,0.348,0.281,0.629,0.628,0.629c0.348,0,0.628-0.281,0.628-0.629    C52.876,219.725,52.596,219.444,52.248,219.444z M62.02,219.444c-0.347,0-0.628,0.281-0.628,0.627    c0,0.348,0.281,0.629,0.628,0.629c0.348,0,0.629-0.281,0.629-0.629C62.648,219.725,62.367,219.444,62.02,219.444z M52.248,209.118    c-0.347,0-0.628,0.281-0.628,0.627c0,0.348,0.281,0.629,0.628,0.629c0.348,0,0.628-0.281,0.628-0.629    C52.876,209.399,52.596,209.118,52.248,209.118z M62.049,217.635c0-0.348-0.281-0.629-0.628-0.629s-0.628,0.281-0.628,0.629    s0.281,0.628,0.628,0.628S62.049,217.983,62.049,217.635z M54.719,207.261c0-0.347-0.281-0.628-0.628-0.628    s-0.628,0.281-0.628,0.628s0.281,0.629,0.628,0.629S54.719,207.608,54.719,207.261z M41.477,206.128    c-1.252,0-2.271,1.019-2.271,2.271s1.019,2.27,2.271,2.27s2.271-1.018,2.271-2.27S42.729,206.128,41.477,206.128z M41.477,209.66    c-0.695,0-1.262-0.565-1.262-1.261c0-0.696,0.566-1.262,1.262-1.262s1.261,0.565,1.261,1.262    C42.737,209.094,42.172,209.66,41.477,209.66z M54.695,219.444c-0.348,0-0.629,0.281-0.629,0.627c0,0.348,0.281,0.629,0.629,0.629    c0.347,0,0.628-0.281,0.628-0.629C55.323,219.725,55.042,219.444,54.695,219.444z M57.175,217.563    c0-0.346-0.281-0.627-0.628-0.627s-0.628,0.281-0.628,0.627c0,0.348,0.281,0.629,0.628,0.629S57.175,217.911,57.175,217.563z     M59.578,219.444c-0.347,0-0.628,0.281-0.628,0.627c0,0.348,0.281,0.629,0.628,0.629c0.348,0,0.629-0.281,0.629-0.629    C60.207,219.725,59.926,219.444,59.578,219.444z M54.719,217.586c0-0.346-0.281-0.627-0.628-0.627s-0.628,0.281-0.628,0.627    c0,0.348,0.281,0.629,0.628,0.629S54.719,217.934,54.719,217.586z M59.598,217.586c0-0.346-0.281-0.627-0.628-0.627    c-0.348,0-0.628,0.281-0.628,0.627c0,0.348,0.28,0.629,0.628,0.629C59.316,218.215,59.598,217.934,59.598,217.586z     M57.132,219.444c-0.347,0-0.628,0.281-0.628,0.627c0,0.348,0.281,0.629,0.628,0.629s0.628-0.281,0.628-0.629    C57.76,219.725,57.479,219.444,57.132,219.444z M119.574,213.534c-0.568,0-1.029,0.461-1.029,1.029s0.461,1.029,1.029,1.029    s1.029-0.461,1.029-1.029S120.143,213.534,119.574,213.534z M166.381,220.196c-0.383,0-0.692,0.311-0.692,0.692    c0,0.383,0.31,0.693,0.692,0.693s0.692-0.311,0.692-0.693C167.073,220.506,166.764,220.196,166.381,220.196z M169.116,218.123    c0-0.383-0.311-0.692-0.693-0.692c-0.382,0-0.692,0.31-0.692,0.692s0.311,0.693,0.692,0.693    C168.806,218.816,169.116,218.505,169.116,218.123z M166.407,218.149c0-0.383-0.31-0.692-0.692-0.692s-0.693,0.31-0.693,0.692    s0.311,0.693,0.693,0.693S166.407,218.532,166.407,218.149z M171.788,218.149c0-0.383-0.311-0.692-0.692-0.692    c-0.383,0-0.693,0.31-0.693,0.692s0.311,0.693,0.693,0.693C171.478,218.842,171.788,218.532,171.788,218.149z M171.767,220.196    c-0.382,0-0.692,0.311-0.692,0.692c0,0.383,0.311,0.693,0.692,0.693c0.383,0,0.693-0.311,0.693-0.693    C172.46,220.506,172.149,220.196,171.767,220.196z M163.683,220.196c-0.383,0-0.692,0.311-0.692,0.692    c0,0.383,0.31,0.693,0.692,0.693s0.692-0.311,0.692-0.693C164.375,220.506,164.065,220.196,163.683,220.196z M169.068,220.196    c-0.382,0-0.692,0.311-0.692,0.692c0,0.383,0.311,0.693,0.692,0.693c0.383,0,0.693-0.311,0.693-0.693    C169.762,220.506,169.451,220.196,169.068,220.196z M174.46,230.33c-0.383,0-0.693,0.31-0.693,0.692s0.311,0.693,0.693,0.693    c0.382,0,0.692-0.311,0.692-0.693S174.842,230.33,174.46,230.33z M171.767,230.33c-0.382,0-0.692,0.31-0.692,0.692    s0.311,0.693,0.692,0.693c0.383,0,0.693-0.311,0.693-0.693S172.149,230.33,171.767,230.33z M171.788,228.282    c0-0.382-0.311-0.691-0.692-0.691c-0.383,0-0.693,0.31-0.693,0.691c0,0.384,0.311,0.693,0.693,0.693    C171.478,228.975,171.788,228.666,171.788,228.282z M174.491,228.334c0-0.382-0.31-0.691-0.692-0.691s-0.693,0.31-0.693,0.691    c0,0.383,0.311,0.693,0.693,0.693S174.491,228.717,174.491,228.334z M151.803,216.361c-1.381,0-2.504,1.122-2.504,2.503    s1.123,2.504,2.504,2.504c1.38,0,2.504-1.123,2.504-2.504S153.183,216.361,151.803,216.361z M151.803,220.254    c-0.767,0-1.391-0.623-1.391-1.391s0.624-1.391,1.391-1.391s1.391,0.623,1.391,1.391S152.569,220.254,151.803,220.254z     M163.72,218.174c0-0.382-0.31-0.691-0.692-0.691s-0.693,0.31-0.693,0.691c0,0.383,0.311,0.693,0.693,0.693    S163.72,218.557,163.72,218.174z M174.491,218.201c0-0.382-0.31-0.692-0.692-0.692s-0.693,0.311-0.693,0.692    c0,0.384,0.311,0.693,0.693,0.693S174.491,218.584,174.491,218.201z M174.46,220.196c-0.383,0-0.693,0.311-0.693,0.692    c0,0.383,0.311,0.693,0.693,0.693c0.382,0,0.692-0.311,0.692-0.693C175.152,220.506,174.842,220.196,174.46,220.196z     M171.767,208.807c-0.382,0-0.692,0.311-0.692,0.693s0.311,0.691,0.692,0.691c0.383,0,0.693-0.309,0.693-0.691    S172.149,208.807,171.767,208.807z M174.491,206.813c0-0.383-0.31-0.692-0.692-0.692s-0.693,0.31-0.693,0.692    s0.311,0.693,0.693,0.693S174.491,207.196,174.491,206.813z M171.788,206.76c0-0.383-0.311-0.692-0.692-0.692    c-0.383,0-0.693,0.31-0.693,0.692s0.311,0.693,0.693,0.693C171.478,207.454,171.788,207.143,171.788,206.76z M174.46,208.807    c-0.383,0-0.693,0.311-0.693,0.693s0.311,0.691,0.693,0.691c0.382,0,0.692-0.309,0.692-0.691S174.842,208.807,174.46,208.807z     M169.068,208.807c-0.382,0-0.692,0.311-0.692,0.693s0.311,0.691,0.692,0.691c0.383,0,0.693-0.309,0.693-0.691    S169.451,208.807,169.068,208.807z M177.903,201.422h-30.705c-1.414,0-2.368,1.149-2.368,2.563v7.641    c0,0.816,0.392,1.538,0.989,2.007c-0.598,0.471-0.989,1.191-0.989,2.008v6.557c0,0.816,0.392,1.537,0.989,2.007    c-0.598,0.47-0.989,1.191-0.989,2.009v6.947c0,1.414,1.15,2.564,2.564,2.564h30.508c1.414,0,2.564-1.15,2.564-2.563v-6.948    c0-0.818-0.392-1.539-0.989-2.008c0.599-0.471,0.989-1.191,0.989-2.008v-6.557c0-0.816-0.391-1.537-0.988-2.007    c0.598-0.47,0.988-1.191,0.988-2.008v-7.641C180.467,202.572,179.316,201.422,177.903,201.422z M178.51,232.264    c0,0.8-0.651,1.451-1.451,1.451h-28.786c-0.8,0-1.451-0.65-1.451-1.451v-5.16c0-0.801,0.651-1.451,1.451-1.451h28.785    c0.801,0,1.452,0.65,1.452,1.451V232.264z M178.51,222.198c0,0.8-0.651,1.451-1.451,1.451h-28.73c-0.8,0-1.451-0.65-1.451-1.451    v-6.557c0-0.8,0.651-1.451,1.451-1.451h28.729c0.801,0,1.452,0.651,1.452,1.451V222.198z M178.51,210.735    c0,0.801-0.651,1.451-1.451,1.451h-28.534c-0.8,0-1.647-0.65-1.647-1.45v-5.833c0-0.801,0.651-1.451,1.451-1.451h28.729    c0.801,0,1.452,0.65,1.452,1.451V210.735z M166.407,206.76c0-0.383-0.31-0.692-0.692-0.692s-0.693,0.31-0.693,0.692    s0.311,0.693,0.693,0.693S166.407,207.143,166.407,206.76z M89.904,224.758c-2.052,0-3.722,1.67-3.722,3.722s1.67,3.72,3.722,3.72    c2.051,0,3.721-1.668,3.721-3.72S91.955,224.758,89.904,224.758z M89.904,230.546c-1.14,0-2.067-0.927-2.067-2.066    c0-1.142,0.928-2.067,2.067-2.067c1.139,0,2.066,0.926,2.066,2.067C91.971,229.62,91.043,230.546,89.904,230.546z     M163.683,208.807c-0.383,0-0.692,0.311-0.692,0.693s0.31,0.691,0.692,0.691s0.692-0.309,0.692-0.691    S164.065,208.807,163.683,208.807z M151.803,205.511c-1.381,0-2.504,1.122-2.504,2.503s1.123,2.504,2.504,2.504    c1.38,0,2.504-1.123,2.504-2.504S153.183,205.511,151.803,205.511z M151.803,209.405c-0.767,0-1.391-0.623-1.391-1.391    s0.624-1.391,1.391-1.391s1.391,0.623,1.391,1.391S152.569,209.405,151.803,209.405z M169.116,206.735    c0-0.383-0.311-0.693-0.693-0.693c-0.382,0-0.692,0.311-0.692,0.693s0.311,0.693,0.692,0.693    C168.806,207.428,169.116,207.118,169.116,206.735z M166.381,208.807c-0.383,0-0.692,0.311-0.692,0.693s0.31,0.691,0.692,0.691    s0.692-0.309,0.692-0.691S166.764,208.807,166.381,208.807z M169.068,230.33c-0.382,0-0.692,0.31-0.692,0.692    s0.311,0.693,0.692,0.693c0.383,0,0.693-0.311,0.693-0.693S169.451,230.33,169.068,230.33z M163.72,206.787    c0-0.382-0.31-0.692-0.692-0.692s-0.693,0.311-0.693,0.692c0,0.384,0.311,0.694,0.693,0.694S163.72,207.17,163.72,206.787z     M123.575,230.458c-0.568,0-1.029,0.461-1.029,1.029s0.461,1.031,1.029,1.031c0.569,0,1.03-0.463,1.03-1.031    S124.145,230.458,123.575,230.458z M123.623,227.494c0-0.568-0.461-1.028-1.03-1.028c-0.568,0-1.029,0.46-1.029,1.028    c0,0.569,0.461,1.03,1.029,1.03C123.162,228.524,123.623,228.063,123.623,227.494z M119.605,227.417    c0-0.568-0.461-1.029-1.03-1.029c-0.568,0-1.029,0.461-1.029,1.029s0.461,1.029,1.029,1.029    C119.145,228.446,119.605,227.985,119.605,227.417z M119.574,230.458c-0.568,0-1.029,0.461-1.029,1.029s0.461,1.031,1.029,1.031    s1.029-0.463,1.029-1.031S120.143,230.458,119.574,230.458z M89.904,208.634c-2.052,0-3.722,1.669-3.722,3.721    s1.67,3.721,3.722,3.721c2.051,0,3.721-1.669,3.721-3.721S91.955,208.634,89.904,208.634z M89.904,214.422    c-1.14,0-2.067-0.928-2.067-2.067s0.928-2.067,2.067-2.067c1.139,0,2.066,0.928,2.066,2.067S91.043,214.422,89.904,214.422z     M107.56,213.534c-0.568,0-1.029,0.461-1.029,1.029s0.461,1.029,1.029,1.029s1.029-0.461,1.029-1.029    S108.128,213.534,107.56,213.534z M107.615,210.53c0-0.568-0.461-1.028-1.03-1.028c-0.568,0-1.029,0.46-1.029,1.028    c0,0.57,0.461,1.031,1.029,1.031C107.154,211.561,107.615,211.1,107.615,210.53z M111.569,230.458    c-0.568,0-1.029,0.461-1.029,1.029s0.461,1.031,1.029,1.031s1.029-0.463,1.029-1.031S112.138,230.458,111.569,230.458z     M115.564,230.458c-0.569,0-1.029,0.461-1.029,1.029s0.46,1.031,1.029,1.031c0.568,0,1.029-0.463,1.029-1.031    S116.133,230.458,115.564,230.458z M107.56,230.458c-0.568,0-1.029,0.461-1.029,1.029s0.461,1.031,1.029,1.031    s1.029-0.463,1.029-1.031S108.128,230.458,107.56,230.458z M107.615,227.456c0-0.569-0.461-1.029-1.03-1.029    c-0.568,0-1.029,0.46-1.029,1.029c0,0.568,0.461,1.029,1.029,1.029C107.154,228.485,107.615,228.024,107.615,227.456z     M169.116,228.256c0-0.383-0.311-0.692-0.693-0.692c-0.382,0-0.692,0.31-0.692,0.692s0.311,0.693,0.692,0.693    C168.806,228.95,169.116,228.639,169.116,228.256z M115.634,227.376c0-0.567-0.461-1.028-1.029-1.028s-1.029,0.461-1.029,1.028    c0,0.569,0.461,1.03,1.029,1.03S115.634,227.946,115.634,227.376z M111.608,210.491c0-0.568-0.46-1.028-1.029-1.028    c-0.568,0-1.029,0.46-1.029,1.028c0,0.57,0.461,1.031,1.029,1.031C111.148,211.522,111.608,211.061,111.608,210.491z     M111.608,227.417c0-0.568-0.46-1.029-1.029-1.029c-0.568,0-1.029,0.461-1.029,1.029s0.461,1.029,1.029,1.029    C111.148,228.446,111.608,227.985,111.608,227.417z M151.803,226.987c-1.381,0-2.504,1.124-2.504,2.504    c0,1.381,1.123,2.504,2.504,2.504c1.38,0,2.504-1.123,2.504-2.504C154.307,228.111,153.183,226.987,151.803,226.987z     M151.803,230.881c-0.767,0-1.391-0.623-1.391-1.391s0.624-1.391,1.391-1.391s1.391,0.623,1.391,1.391    S152.569,230.881,151.803,230.881z M163.72,228.309c0-0.383-0.31-0.693-0.692-0.693s-0.693,0.311-0.693,0.693    s0.311,0.693,0.693,0.693S163.72,228.692,163.72,228.309z M152.466,161.688c1.157,4.996,5.63,8.746,10.979,8.773    c6.249,0.033,11.36-5.023,11.393-11.271c0.033-6.248-5.023-11.357-11.273-11.391c-5.349-0.029-10.863,4.521-11.131,10.803    l-5.893-0.026l-0.003-33.258c0.008-1.444-1.157-2.621-2.602-2.629l-16.847-0.092c-1.445-0.007-2.56,0.156-2.566,1.601    c-0.008,1.444,1.094,1.314,2.539,1.322l16.512,0.047l0.076,33.45c-0.008,1.444,1.001,2.621,2.445,2.628L152.466,161.688z     M163.649,150.526c4.769,0.024,8.627,3.924,8.603,8.69c-0.025,4.768-3.926,8.626-8.693,8.601    c-4.769-0.025-8.628-3.924-8.603-8.691S158.881,150.5,163.649,150.526z M163.683,230.33c-0.383,0-0.692,0.31-0.692,0.692    s0.31,0.693,0.692,0.693s0.692-0.311,0.692-0.693S164.065,230.33,163.683,230.33z M166.381,230.33    c-0.383,0-0.692,0.31-0.692,0.692s0.31,0.693,0.692,0.693s0.692-0.311,0.692-0.693S166.764,230.33,166.381,230.33z     M166.407,228.282c0-0.382-0.31-0.691-0.692-0.691s-0.693,0.31-0.693,0.691c0,0.384,0.311,0.693,0.693,0.693    S166.407,228.666,166.407,228.282z M128.693,202.557H83.061c-2.101,0-3.519,1.709-3.519,3.811v11.354    c0,1.215,0.581,2.286,1.47,2.983c-0.889,0.699-1.47,1.77-1.47,2.984v9.742c0,1.216,0.581,2.286,1.47,2.984    c-0.889,0.699-1.47,1.77-1.47,2.984v10.326c0,2.102,1.709,3.811,3.811,3.811h45.34c2.101,0,3.81-1.709,3.81-3.811v-10.326    c0-1.215-0.581-2.285-1.469-2.983c0.889-0.698,1.47-1.77,1.47-2.983v-9.744c0-1.215-0.581-2.285-1.469-2.982    c0.888-0.699,1.469-1.771,1.469-2.984v-11.355C132.503,204.266,130.794,202.557,128.693,202.557z M129.594,248.394    c0,1.188-0.967,2.156-2.156,2.156H84.658c-1.189,0.001-2.156-0.967-2.156-2.155v-7.67c0-1.189,0.967-2.157,2.156-2.157h42.778    c1.19,0,2.157,0.968,2.157,2.157V248.394z M129.594,233.432c0,1.189-0.967,2.157-2.156,2.157H84.74    c-1.188,0.001-2.156-0.966-2.156-2.155v-9.744c0-1.188,0.968-2.156,2.156-2.156h42.696c1.19,0,2.157,0.968,2.157,2.156V233.432z     M129.594,216.399c0,1.189-0.967,2.156-2.156,2.156H85.032c-1.189,0-2.448-0.967-2.448-2.156v-8.668    c0-1.189,0.968-2.156,2.156-2.156h42.696c1.19,0,2.157,0.967,2.157,2.156V216.399z M123.623,210.569    c0-0.568-0.461-1.029-1.03-1.029c-0.568,0-1.029,0.461-1.029,1.029c0,0.569,0.461,1.031,1.029,1.031    C123.162,211.6,123.623,211.138,123.623,210.569z M119.605,210.491c0-0.568-0.461-1.028-1.03-1.028    c-0.568,0-1.029,0.46-1.029,1.028c0,0.57,0.461,1.031,1.029,1.031C119.145,211.522,119.605,211.061,119.605,210.491z     M115.564,213.534c-0.569,0-1.029,0.461-1.029,1.029s0.46,1.029,1.029,1.029c0.568,0,1.029-0.461,1.029-1.029    S116.133,213.534,115.564,213.534z M115.634,210.452c0-0.567-0.461-1.027-1.029-1.027s-1.029,0.46-1.029,1.027    c0,0.57,0.461,1.031,1.029,1.031S115.634,211.022,115.634,210.452z M123.575,213.534c-0.568,0-1.029,0.461-1.029,1.029    s0.461,1.029,1.029,1.029c0.569,0,1.03-0.461,1.03-1.029S124.145,213.534,123.575,213.534z M111.569,213.534    c-0.568,0-1.029,0.461-1.029,1.029s0.461,1.029,1.029,1.029s1.029-0.461,1.029-1.029S112.138,213.534,111.569,213.534z     M52.248,228.632c-0.347,0-0.628,0.28-0.628,0.627c0,0.348,0.281,0.629,0.628,0.629c0.348,0,0.628-0.281,0.628-0.629    C52.876,228.913,52.596,228.632,52.248,228.632z"/>
	</g>
</g>
</svg>