<?xml version="1.0" encoding="utf-8"?>
<!-- Generator: Adobe Illustrator 15.1.0, SVG Export Plug-In . SVG Version: 6.00 Build 0)  -->
<!DOCTYPE svg PUBLIC "-//W3C//DTD SVG 1.1//EN" "http://www.w3.org/Graphics/SVG/1.1/DTD/svg11.dtd">
<svg version="1.1" id="Layer_1" xmlns="http://www.w3.org/2000/svg" xmlns:xlink="http://www.w3.org/1999/xlink" x="0px" y="0px"
	 width="181.599px" height="220.597px" viewBox="0 0 181.599 220.597" enable-background="new 0 0 181.599 220.597"
	 xml:space="preserve">
<path fill-rule="evenodd" clip-rule="evenodd" fill="#33cafe94" d="M130.865,0l37.148,31.949l13.585,11.757l-22.08,25.799
	L50.754,203.009L0,159.315L130.865,0z"/>
<g>
	<g>
		<path fill-rule="evenodd" clip-rule="evenodd" fill="#227d96" d="M32.551,173.513c-1.24,0-2.248,1.01-2.248,2.253
			c0,1.241,1.008,2.253,2.248,2.253c1.239,0,2.247-1.012,2.247-2.253C34.798,174.522,33.79,173.513,32.551,173.513z M32.551,176.892
			c-0.62,0-1.124-0.506-1.124-1.126c0-0.621,0.504-1.126,1.124-1.126c0.619,0,1.123,0.505,1.123,1.126
			C33.674,176.386,33.17,176.892,32.551,176.892z M72.689,192.052c-1.877,0-3.402,1.529-3.402,3.41s1.525,3.409,3.402,3.409
			s3.403-1.528,3.403-3.409S74.566,192.052,72.689,192.052z M72.689,197.166c-0.938,0-1.701-0.765-1.701-1.704
			s0.763-1.705,1.701-1.705s1.701,0.766,1.701,1.705S73.628,197.166,72.689,197.166z M150.378,175.199l-2.033-6.179
			c1.062-1.866,1.403-4.004,1.403-6.16c-0.001-6.859-5.584-12.44-12.447-12.44c-4.86,0-9.275,2.841-11.305,7.247
			c-3.816,2.128-6.405,6.203-6.405,10.873c0,2.156,0.56,4.273,1.622,6.141l-2.014,6.039c-0.061,0.18-0.017,0.378,0.112,0.516
			c0.244,0.262,0.591,0.127,0.509,0.147l6.605-1.738c1.73,0.874,3.703,1.521,5.648,1.521c4.888,0,9.089-3.017,11.123-7.125
			l6.559,1.821c-0.082-0.021,0.265,0.115,0.509-0.146C150.395,175.577,150.438,175.378,150.378,175.199z M141.93,172.791
			c-1.692,3.868-5.354,6.521-9.832,6.521c-1.276,0-2.51-0.175-3.704-0.608l1.64-0.367c0.268-0.059,0.436-0.324,0.377-0.592
			c-0.06-0.268-0.327-0.433-0.591-0.377l-8.769,2.186l1.713-5.148c0.046-0.137,0.03-0.287-0.044-0.412
			c-1.002-1.688-1.531-3.622-1.531-5.594c0-4.289,2.472-8.01,6.062-9.811c0.365-0.184,2.239-1.157,4.884-1.157
			c6.035,0,10.716,4.921,10.716,10.968C142.85,166.786,143.116,170.073,141.93,172.791z M146.438,168.944l1.598,4.689l-4.368-1.439
			c0.947-2.309,0.824-4.791,0.824-4.369c0-6.595-5.354-11.961-11.936-11.961c-2.547,0-4.597,0.92-4.235,0.781
			c-0.022,0.008-0.047,0.014-0.068,0.023c1.967-3.242,5.081-4.697,8.93-4.697c6.035,0,10.869,4.768,10.869,10.814
			c0,1.973-0.568,4.059-1.569,5.748C146.408,168.657,146.391,168.808,146.438,168.944z M49.99,135.986l79.646,0.183
			c2.31,0,4.182-1.928,4.182-4.237l-0.007-75.705l-0.242-0.039l-22.633-27.609l-0.005-0.077l-60.94,0.015
			c-2.309,0-4.181,3.103-4.181,5.412v98.003C45.81,134.241,47.682,135.986,49.99,135.986z M113.832,36.503l13.869,16.956
			l-13.869,0.044V36.503z M48.791,35.602c0-2.309,1.871-4.181,4.181-4.181l57.95-0.027l-0.085,25.071l20.092,0.006l0.037,71.836
			c0,2.309-1.872,4.18-4.182,4.18H52.972c-2.31,0-4.181-1.871-4.181-4.18V35.602z M67.274,86.841
			c0.001,0.002,0.002,0.004,0.004,0.007l12.408,7.067c1.531,0.787,2.911,1.171,3.277,0.264c0.509-1.264,0.038-1.8-0.983-2.45
			l-10.692-6.131l9.816-5.744c1.446-0.934,2.471-1.936,1.867-2.707c-0.841-1.073-1.541-0.934-2.613-0.373l-11.765,6.838
			c-0.258,0.186-0.501,0.359-0.726,0.524c-0.18,0.001-0.332,0.047-0.45,0.152c-0.341,0.3-0.526,0.566-0.623,0.816
			c-0.131,0.19-0.198,0.375-0.161,0.56C66.763,86.31,66.989,86.651,67.274,86.841z M91.405,192.052c-1.877,0-3.403,1.529-3.403,3.41
			s1.526,3.409,3.403,3.409s3.403-1.528,3.403-3.409S93.282,192.052,91.405,192.052z M91.405,197.166
			c-0.938,0-1.701-0.765-1.701-1.704s0.763-1.705,1.701-1.705s1.701,0.766,1.701,1.705S92.344,197.166,91.405,197.166z
			 M87.931,97.705c1.134,0,1.772-0.919,1.772-2.053l7.119-22.585c0-1.133-0.64-2.052-1.773-2.052s-1.773,0.918-1.773,2.052
			l-7.118,22.585C86.157,96.786,86.797,97.705,87.931,97.705z M82.048,192.052c-1.877,0-3.403,1.529-3.403,3.41
			s1.526,3.409,3.403,3.409c1.876,0,3.402-1.528,3.402-3.409S83.924,192.052,82.048,192.052z M82.048,197.166
			c-0.938,0-1.702-0.765-1.702-1.704s0.764-1.705,1.702-1.705s1.701,0.766,1.701,1.705S82.986,197.166,82.048,197.166z
			 M38.732,173.513c-1.24,0-2.248,1.01-2.248,2.253c0,1.241,1.008,2.253,2.248,2.253c1.239,0,2.248-1.012,2.248-2.253
			C40.98,174.522,39.972,173.513,38.732,173.513z M38.732,176.892c-0.62,0-1.124-0.506-1.124-1.126c0-0.621,0.504-1.126,1.124-1.126
			s1.124,0.505,1.124,1.126C39.856,176.386,39.353,176.892,38.732,176.892z M132.181,166.367c-1.093,0-1.981,0.89-1.981,1.985
			s0.889,1.986,1.981,1.986s1.981-0.891,1.981-1.986S133.273,166.367,132.181,166.367z M132.181,169.345
			c-0.546,0-0.99-0.444-0.99-0.992c0-0.547,0.444-0.992,0.99-0.992c0.547,0,0.991,0.445,0.991,0.992
			C133.172,168.9,132.728,169.345,132.181,169.345z M126.732,166.367c-1.094,0-1.982,0.89-1.982,1.985s0.889,1.986,1.982,1.986
			c1.092,0,1.98-0.891,1.98-1.986S127.824,166.367,126.732,166.367z M126.732,169.345c-0.547,0-0.991-0.444-0.991-0.992
			c0-0.547,0.444-0.992,0.991-0.992c0.546,0,0.99,0.445,0.99,0.992C127.723,168.9,127.278,169.345,126.732,169.345z M59.247,184.118
			c0.147-0.158,0.196-0.383,0.129-0.586l-2.308-7.01c1.205-2.117,1.593-4.542,1.593-6.988c-0.001-7.782-6.335-14.113-14.12-14.113
			c-5.515,0-10.523,3.223-12.825,8.223c-4.33,2.414-7.267,7.036-7.267,12.334c0,2.447,0.635,4.849,1.84,6.967l-2.285,6.851
			c-0.067,0.204-0.019,0.429,0.129,0.586c0.276,0.296,0.67,0.143,0.576,0.166l7.494-1.972c1.963,0.992,4.2,1.725,6.407,1.725
			c5.546,0,10.312-3.422,12.619-8.082l7.44,2.066C58.577,184.261,58.971,184.414,59.247,184.118z M49.792,180.8
			c-1.92,4.389-6.075,7.399-11.154,7.399c-1.448,0-2.847-0.198-4.202-0.691l1.86-0.415c0.303-0.068,0.494-0.369,0.427-0.672
			c-0.067-0.305-0.371-0.491-0.67-0.428l-9.946,2.479l1.942-5.841c0.053-0.155,0.034-0.325-0.05-0.466
			c-1.137-1.916-1.737-4.109-1.737-6.347c0-4.866,2.805-9.087,6.877-11.13c0.414-0.209,2.54-1.312,5.54-1.312
			c6.847,0,12.156,5.582,12.156,12.443C50.835,173.987,51.138,177.718,49.792,180.8z M54.905,176.437l1.812,5.319l-4.956-1.633
			c1.076-2.619,0.937-5.435,0.937-4.956c0-7.481-6.075-13.568-13.541-13.568c-2.66,0-4.836,0.88-4.846,0.898
			c-0.013,0.004-0.025,0.008-0.037,0.012c2.232-3.676,5.765-5.327,10.131-5.327c6.847,0,12.33,5.407,12.33,12.269
			c0,2.237-0.644,4.605-1.78,6.521C54.872,176.111,54.853,176.282,54.905,176.437z M115.074,195.958
			c2.113-3.715,2.793-7.97,2.793-12.262c-0.001-13.653-11.113-24.762-24.773-24.762c-9.675,0-18.463,5.654-22.501,14.427
			c-7.598,4.233-12.749,12.345-12.749,21.64c0,4.293,1.114,8.508,3.229,12.223l-4.01,12.02c-0.119,0.359-0.032,0.753,0.226,1.028
			c0.485,0.519,1.176,0.251,1.012,0.291l13.148-3.458c3.443,1.74,7.369,3.025,11.241,3.025c9.729,0,18.091-6.004,22.14-14.182
			l13.055,3.626c-0.163-0.041,0.526,0.229,1.013-0.291c0.258-0.276,0.344-0.671,0.225-1.027L115.074,195.958z M102.307,203.463
			c-3.369,7.698-10.658,12.981-19.57,12.981c-2.54,0-4.994-0.349-7.373-1.214l3.265-0.728c0.532-0.119,0.867-0.646,0.75-1.18
			c-0.118-0.533-0.652-0.861-1.177-0.75l-17.451,4.349l3.409-10.248c0.092-0.271,0.059-0.571-0.088-0.817
			c-1.994-3.36-3.048-7.21-3.048-11.135c0-8.537,4.92-15.941,12.064-19.528c0.728-0.365,4.457-2.302,9.72-2.302
			c12.014,0.001,21.329,9.795,21.329,21.832C104.137,191.51,104.668,198.056,102.307,203.463z M111.277,195.806l3.18,9.334
			l-8.693-2.865c1.887-4.596,1.642-9.534,1.642-8.695c0-13.127-10.657-23.807-23.758-23.807c-4.684,0-8.514,1.559-8.502,1.578
			c-0.021,0.007-0.043,0.014-0.064,0.021c3.917-6.451,10.114-9.348,17.775-9.348c12.013,0,21.633,9.488,21.633,21.525
			c0,3.924-1.13,8.078-3.124,11.439C111.22,195.235,111.186,195.535,111.277,195.806z M137.63,166.367
			c-1.093,0-1.981,0.89-1.981,1.985s0.889,1.986,1.981,1.986s1.981-0.891,1.981-1.986S138.723,166.367,137.63,166.367z
			 M137.63,169.345c-0.546,0-0.99-0.444-0.99-0.992c0-0.547,0.444-0.992,0.99-0.992c0.547,0,0.991,0.445,0.991,0.992
			C138.621,168.9,138.177,169.345,137.63,169.345z M44.914,173.513c-1.24,0-2.248,1.01-2.248,2.253c0,1.241,1.008,2.253,2.248,2.253
			c1.239,0,2.248-1.012,2.248-2.253C47.162,174.522,46.153,173.513,44.914,173.513z M44.914,176.892
			c-0.62,0-1.124-0.506-1.124-1.126c0-0.621,0.504-1.126,1.124-1.126s1.124,0.505,1.124,1.126
			C46.038,176.386,45.534,176.892,44.914,176.892z M98.749,79.645l10.691,6.131l-9.816,5.744c-1.445,0.933-2.47,1.935-1.866,2.706
			c0.84,1.072,1.541,0.933,2.613,0.373l11.765-6.838c0.259-0.187,0.502-0.359,0.727-0.525c0.181-0.002,0.331-0.048,0.449-0.152
			c0.34-0.299,0.525-0.565,0.622-0.815c0.132-0.19,0.199-0.376,0.162-0.562c-0.13-0.645-0.356-0.986-0.643-1.176
			c-0.001-0.002-0.002-0.003-0.003-0.005l-0.151-0.086c-0.01-0.004-0.019-0.013-0.028-0.017l-12.228-6.965
			c-1.531-0.786-2.911-1.172-3.277-0.264C97.257,78.458,97.728,78.996,98.749,79.645z"/>
	</g>
</g>
</svg>
