<?xml version="1.0" encoding="utf-8"?>
<!-- Generator: Adobe Illustrator 15.1.0, SVG Export Plug-In . SVG Version: 6.00 Build 0)  -->
<!DOCTYPE svg PUBLIC "-//W3C//DTD SVG 1.1//EN" "http://www.w3.org/Graphics/SVG/1.1/DTD/svg11.dtd">
<svg version="1.1" id="Layer_1" xmlns="http://www.w3.org/2000/svg" xmlns:xlink="http://www.w3.org/1999/xlink" x="0px" y="0px"
	 width="204.244px" height="239.451px" viewBox="0 0 204.244 239.451" enable-background="new 0 0 204.244 239.451"
	 xml:space="preserve">
<path fill-rule="evenodd" clip-rule="evenodd" fill="#33cafe94" d="M31.383,0l87.03,57.477l85.831,53.075l-31.364,48.689L0,48.705
	L31.383,0z"/>
<g>
	<g>
		<path fill="#227d96" d="M64.591,187.865l-1.277-1.814c0.36-0.68,0.663-1.388,0.889-2.114l2.186-0.353
			c0.931-0.15,1.611-0.947,1.616-1.891l0.015-2.737c0.018-0.942-0.654-1.745-1.583-1.907l-2.183-0.382
			c-0.224-0.735-0.512-1.446-0.866-2.124l1.297-1.794c0.55-0.765,0.471-1.812-0.195-2.479l-1.927-1.947
			c-0.362-0.366-0.842-0.57-1.355-0.572c-0.403-0.002-0.788,0.119-1.114,0.352l-1.813,1.277c-0.7-0.374-1.434-0.684-2.192-0.916
			l-0.353-2.16c-0.151-0.93-0.947-1.611-1.89-1.615l-2.737-0.014c-0.942-0.006-1.746,0.666-1.906,1.595l-0.39,2.209
			c-0.729,0.224-1.438,0.519-2.117,0.88l-1.78-1.297c-0.324-0.236-0.714-0.361-1.116-0.364c-0.514-0.003-1.003,0.197-1.362,0.559
			l-1.954,1.928c-0.666,0.659-0.763,1.706-0.221,2.477l1.291,1.833c-0.361,0.682-0.651,1.389-0.877,2.123l-2.159,0.352
			c-0.931,0.152-1.611,0.948-1.616,1.891l-0.015,2.737c-0.005,0.942,0.667,1.747,1.596,1.907l2.208,0.389
			c0.225,0.729,0.52,1.439,0.88,2.117l-1.29,1.775c-0.55,0.764-0.471,1.812,0.195,2.479l1.927,1.947
			c0.362,0.367,0.842,0.57,1.355,0.573c0.403,0.003,0.787-0.119,1.113-0.351l1.834-1.292c0.655,0.348,1.343,0.632,2.05,0.856
			l0.353,2.187c0.151,0.931,0.947,1.611,1.89,1.616l2.743,0.014c0.943,0.006,1.746-0.667,1.907-1.596l0.382-2.182
			c0.735-0.225,1.446-0.514,2.124-0.867l1.794,1.297c0.323,0.236,0.713,0.361,1.116,0.363c0.514,0.003,0.996-0.196,1.361-0.559
			l1.947-1.928C65.036,189.683,65.133,188.637,64.591,187.865z M63.141,189.102l-1.947,1.926c-0.046,0.045-0.091,0.052-0.123,0.052
			c-0.039,0-0.072-0.013-0.098-0.033l-2.248-1.618c-0.278-0.203-0.655-0.218-0.955-0.044c-0.854,0.503-1.772,0.876-2.729,1.118
			c-0.339,0.082-0.594,0.36-0.647,0.697l-0.476,2.729c-0.014,0.084-0.086,0.142-0.17,0.142l-2.737-0.015
			c-0.084-0.001-0.155-0.06-0.168-0.144l-0.44-2.733c-0.057-0.345-0.31-0.619-0.64-0.706c-0.929-0.245-1.824-0.62-2.66-1.105
			c-0.136-0.079-0.292-0.119-0.441-0.119c-0.176-0.001-0.357,0.05-0.508,0.159l-2.284,1.607c-0.032,0.019-0.065,0.032-0.098,0.032
			c-0.025-0.001-0.078-0.008-0.123-0.053l-1.927-1.948c-0.059-0.06-0.064-0.149-0.019-0.222l1.611-2.234
			c0.203-0.285,0.218-0.662,0.044-0.962c-0.503-0.848-0.888-1.767-1.13-2.724c-0.089-0.333-0.361-0.588-0.698-0.647l-2.748-0.483
			c-0.084-0.014-0.143-0.085-0.142-0.17l0.015-2.736c0-0.085,0.059-0.156,0.144-0.168l2.713-0.442
			c0.345-0.056,0.626-0.308,0.712-0.646c0.246-0.955,0.621-1.877,1.126-2.725c0.178-0.299,0.16-0.67-0.04-0.951l-1.606-2.283
			c-0.046-0.066-0.039-0.162,0.021-0.221l1.947-1.928c0.046-0.045,0.091-0.053,0.124-0.052c0.039,0.001,0.071,0.014,0.097,0.033
			l2.234,1.611c0.285,0.202,0.662,0.218,0.962,0.044c0.848-0.503,1.767-0.889,2.724-1.13c0.332-0.089,0.587-0.36,0.647-0.698
			l0.482-2.748c0.014-0.085,0.085-0.143,0.17-0.143l2.736,0.014c0.085,0.002,0.156,0.061,0.169,0.145l0.44,2.714
			c0.057,0.345,0.309,0.626,0.646,0.712c0.98,0.252,1.914,0.641,2.782,1.16c0.299,0.176,0.669,0.166,0.956-0.035l2.251-1.601
			c0.033-0.019,0.065-0.032,0.099-0.031c0.025,0,0.077,0.007,0.123,0.052l1.927,1.948c0.059,0.059,0.064,0.149,0.019,0.222
			l-1.618,2.248c-0.202,0.277-0.218,0.654-0.044,0.955c0.503,0.854,0.875,1.772,1.117,2.73c0.083,0.338,0.36,0.594,0.698,0.647
			l2.729,0.476c0.084,0.014,0.143,0.085,0.142,0.17l-0.015,2.737h-0.006c-0.001,0.085-0.06,0.155-0.145,0.169l-2.732,0.44
			c-0.345,0.057-0.619,0.309-0.705,0.64c-0.252,0.955-0.634,1.869-1.146,2.719c-0.178,0.298-0.166,0.669,0.034,0.956l1.594,2.271
			C63.207,188.944,63.2,189.041,63.141,189.102z M166.2,126.22V38.664c0-3.716-3.04-6.317-6.79-6.317l-125.921,0.04
			c-3.751,0-6.679,2.561-6.679,6.277l0.027,87.565l-18.231,0.001v6.396c0,3.704,4.09,6.363,7.795,6.363l162.719,0.014
			c3.705,0,7.144-2.672,7.144-6.376v-6.406L166.2,126.22z M29.558,41.36c0-3.706,2.891-6.257,6.596-6.257l120.146,0.04
			c5.573,0,7.141,3.434,7.141,7.139l0.013,83.938h-7.292V47.748c0-3.162-2.667-5.343-5.862-5.343l-107.63,0.013
			c-3.196,0-5.815,3.072-5.815,6.232l0.029,77.578l-7.327,0L29.558,41.36z M153.437,50.823v74.227c0,0.404-0.064,0.792-0.156,1.171
			l-113.518,0.006c-0.108-0.381-0.184-0.771-0.184-1.178V50.823c0-3.151,2.525-5.677,5.683-5.677h102.077
			C150.496,45.146,153.437,47.672,153.437,50.823z M183.488,131.232c0,3.565-3.032,5.026-6.597,5.026l-158.874-0.044
			c-3.565,0-6.535-1.417-6.535-4.982v-2.27l172.006-0.002V131.232z M52.49,173.523c-3.706-0.02-6.731,2.975-6.751,6.682
			c-0.02,3.705,2.975,6.732,6.68,6.752c3.706,0.02,6.731-2.977,6.751-6.682C59.189,176.568,56.195,173.543,52.49,173.523z
			 M52.429,185.201c-2.737-0.014-4.948-2.25-4.935-4.987c0.015-2.737,2.25-4.95,4.986-4.936c2.737,0.015,4.948,2.25,4.935,4.987
			C57.415,183.004,55.165,185.215,52.429,185.201z M73.211,158.549c-0.586,0.095-1.014,0.595-1.016,1.188l-0.01,1.721
			c-0.003,0.594,0.419,1.098,1.003,1.199l1.389,0.244c0.141,0.459,0.326,0.905,0.553,1.332l-0.811,1.115
			c-0.346,0.481-0.296,1.14,0.122,1.559l1.212,1.225c0.228,0.23,0.529,0.357,0.853,0.359c0.253,0.002,0.494-0.074,0.699-0.221
			l1.153-0.812c0.411,0.219,0.844,0.397,1.288,0.538l0.222,1.375c0.095,0.585,0.596,1.014,1.188,1.016l1.725,0.01
			c0.593,0.003,1.098-0.42,1.198-1.003l0.24-1.373c0.463-0.141,0.909-0.321,1.336-0.545l1.128,0.815
			c0.203,0.148,0.448,0.227,0.701,0.229c0.323,0.002,0.626-0.123,0.856-0.352l1.224-1.211c0.42-0.415,0.48-1.072,0.14-1.557
			l-0.804-1.141c0.228-0.429,0.418-0.873,0.559-1.33l1.375-0.223c0.585-0.094,1.013-0.594,1.016-1.188l0.009-1.721
			c0.012-0.593-0.411-1.098-0.995-1.199l-1.372-0.24c-0.14-0.463-0.321-0.908-0.544-1.336l0.814-1.128
			c0.347-0.479,0.297-1.138-0.122-1.558l-1.212-1.225c-0.228-0.23-0.529-0.357-0.852-0.359c-0.254-0.002-0.495,0.075-0.7,0.221
			l-1.141,0.803c-0.44-0.234-0.901-0.43-1.378-0.575l-0.222-1.358c-0.096-0.585-0.596-1.013-1.188-1.016l-1.721-0.01
			c-0.593-0.002-1.098,0.42-1.198,1.004l-0.245,1.389c-0.458,0.141-0.904,0.326-1.331,0.553l-1.119-0.814
			c-0.204-0.148-0.448-0.229-0.702-0.229c-0.322-0.002-0.63,0.124-0.856,0.351l-1.228,1.213c-0.42,0.414-0.48,1.072-0.14,1.557
			l0.812,1.152c-0.227,0.429-0.409,0.873-0.551,1.334L73.211,158.549z M75.542,158.953c0.154-0.6,0.391-1.18,0.708-1.714
			c0.111-0.187,0.101-0.419-0.025-0.597l-1.01-1.436c-0.029-0.041-0.024-0.104,0.013-0.139l1.225-1.213
			c0.028-0.027,0.057-0.031,0.077-0.031c0.024,0,0.045,0.008,0.062,0.021l1.404,1.013c0.18,0.129,0.417,0.138,0.605,0.027
			c0.532-0.314,1.11-0.558,1.712-0.709c0.209-0.057,0.369-0.228,0.407-0.44l0.303-1.728c0.009-0.053,0.054-0.09,0.106-0.09
			l1.721,0.01c0.054,0,0.098,0.037,0.106,0.09l0.276,1.707c0.036,0.217,0.194,0.393,0.406,0.447c0.617,0.159,1.204,0.402,1.75,0.729
			c0.188,0.11,0.42,0.104,0.601-0.022l1.416-1.006c0.021-0.012,0.041-0.02,0.062-0.02c0.016,0,0.049,0.004,0.077,0.033l1.212,1.224
			c0.036,0.037,0.04,0.095,0.011,0.14l-1.017,1.413c-0.128,0.175-0.137,0.412-0.027,0.601c0.315,0.537,0.55,1.114,0.701,1.717
			c0.053,0.213,0.228,0.373,0.439,0.406l1.715,0.3c0.054,0.008,0.09,0.054,0.09,0.106l-0.009,1.721h-0.005
			c0,0.054-0.037,0.098-0.09,0.105l-1.719,0.279c-0.217,0.033-0.389,0.192-0.443,0.4c-0.158,0.601-0.398,1.176-0.72,1.709
			c-0.111,0.188-0.104,0.421,0.021,0.602l1.002,1.428c0.028,0.041,0.023,0.103-0.013,0.139l-1.225,1.211
			c-0.029,0.029-0.058,0.033-0.078,0.033c-0.024,0-0.045-0.009-0.062-0.021l-1.412-1.016c-0.176-0.128-0.412-0.137-0.601-0.029
			c-0.537,0.316-1.115,0.551-1.717,0.703c-0.213,0.053-0.373,0.227-0.406,0.439l-0.3,1.715c-0.009,0.054-0.054,0.091-0.106,0.09
			l-1.721-0.01c-0.053,0-0.098-0.037-0.105-0.09l-0.277-1.719c-0.035-0.217-0.194-0.39-0.402-0.443
			c-0.584-0.154-1.146-0.391-1.672-0.695c-0.086-0.05-0.184-0.074-0.277-0.075c-0.11-0.001-0.226,0.032-0.319,0.101l-1.437,1.011
			c-0.02,0.011-0.041,0.02-0.061,0.02c-0.017-0.001-0.05-0.005-0.078-0.032l-1.211-1.225c-0.037-0.037-0.041-0.095-0.012-0.14
			l1.013-1.405c0.128-0.18,0.137-0.416,0.028-0.604c-0.316-0.534-0.559-1.11-0.711-1.713c-0.056-0.208-0.227-0.368-0.439-0.407
			l-1.727-0.303c-0.054-0.008-0.09-0.054-0.09-0.107l0.009-1.721c0.001-0.053,0.038-0.098,0.091-0.105l1.706-0.277
			C75.312,159.324,75.488,159.166,75.542,158.953z M140.776,168.908c-4.911-0.025-8.92,3.942-8.946,8.854
			c-0.025,4.912,3.941,8.922,8.853,8.947c4.91,0.026,8.92-3.941,8.945-8.854C149.654,172.945,145.687,168.935,140.776,168.908z
			 M140.694,184.384c-3.627-0.021-6.558-2.981-6.538-6.61c0.02-3.627,2.98-6.558,6.607-6.538c3.627,0.019,6.558,2.98,6.538,6.608
			C147.283,181.471,144.321,184.402,140.694,184.384z M159.256,173.58l-2.892-0.506c-0.296-0.975-0.679-1.916-1.148-2.814
			l1.719-2.378c0.729-1.013,0.624-2.401-0.259-3.284l-2.554-2.582c-0.479-0.484-1.116-0.754-1.796-0.758
			c-0.534-0.004-1.044,0.158-1.476,0.465l-2.404,1.694c-0.928-0.496-1.899-0.906-2.905-1.214l-0.467-2.862
			c-0.201-1.233-1.256-2.136-2.505-2.142l-3.627-0.02c-1.249-0.006-2.313,0.884-2.526,2.115l-0.516,2.927
			c-0.966,0.297-1.907,0.688-2.806,1.166l-2.359-1.718c-0.43-0.312-0.945-0.48-1.479-0.482c-0.681-0.004-1.328,0.261-1.805,0.74
			l-2.589,2.555c-0.884,0.873-1.012,2.26-0.293,3.281l1.71,2.43c-0.479,0.902-0.862,1.84-1.161,2.812l-2.862,0.468
			c-1.232,0.199-2.135,1.256-2.141,2.504l-0.02,3.627c-0.007,1.25,0.884,2.315,2.114,2.527l2.927,0.516
			c0.297,0.967,0.688,1.908,1.165,2.807l-1.709,2.353c-0.729,1.013-0.624,2.401,0.258,3.283l2.554,2.582
			c0.48,0.485,1.116,0.755,1.797,0.759c0.534,0.004,1.043-0.158,1.476-0.467l2.43-1.71c0.867,0.462,1.778,0.837,2.716,1.134
			l0.468,2.898c0.2,1.233,1.255,2.136,2.504,2.143l3.636,0.019c1.249,0.007,2.313-0.884,2.526-2.115l0.507-2.893
			c0.975-0.296,1.916-0.679,2.814-1.149l2.377,1.719c0.429,0.312,0.945,0.48,1.479,0.482c0.682,0.004,1.32-0.26,1.805-0.74
			l2.581-2.554c0.884-0.874,1.011-2.261,0.293-3.282l-1.693-2.403c0.479-0.903,0.88-1.839,1.178-2.803l2.897-0.468
			c1.232-0.2,2.135-1.256,2.141-2.504l0.02-3.628C161.377,174.859,160.486,173.795,159.256,173.58z M159.034,179.723h-0.009
			c-0.001,0.113-0.078,0.207-0.19,0.224l-3.622,0.585c-0.456,0.074-0.82,0.408-0.935,0.848c-0.334,1.266-0.84,2.477-1.518,3.602
			c-0.234,0.396-0.22,0.887,0.045,1.268l2.112,3.01c0.06,0.086,0.051,0.215-0.027,0.293l-2.581,2.554
			c-0.061,0.061-0.121,0.067-0.164,0.067c-0.052,0-0.095-0.018-0.129-0.043l-2.979-2.145c-0.368-0.268-0.868-0.289-1.266-0.059
			c-1.132,0.668-2.35,1.16-3.617,1.48c-0.448,0.109-0.786,0.479-0.858,0.927l-0.63,3.616c-0.019,0.111-0.113,0.188-0.226,0.188
			l-3.627-0.02c-0.111,0-0.206-0.078-0.223-0.19l-0.584-3.622c-0.075-0.457-0.409-0.82-0.848-0.936
			c-1.23-0.324-2.416-0.822-3.524-1.465c-0.181-0.105-0.387-0.158-0.585-0.159c-0.232-0.001-0.475,0.067-0.673,0.213l-3.026,2.129
			c-0.044,0.026-0.087,0.042-0.13,0.042c-0.034,0-0.104-0.009-0.163-0.07l-2.554-2.58c-0.077-0.078-0.085-0.199-0.024-0.293
			l2.135-2.961c0.27-0.378,0.289-0.878,0.059-1.275c-0.666-1.125-1.177-2.342-1.497-3.61c-0.118-0.439-0.479-0.777-0.926-0.856
			l-3.641-0.641c-0.112-0.018-0.189-0.113-0.188-0.225l0.02-3.628c0-0.112,0.078-0.206,0.19-0.223l3.596-0.585
			c0.456-0.074,0.829-0.408,0.943-0.855c0.325-1.266,0.822-2.486,1.492-3.611c0.234-0.396,0.211-0.887-0.054-1.26l-2.129-3.025
			c-0.061-0.088-0.051-0.217,0.027-0.293l2.58-2.555c0.061-0.061,0.121-0.069,0.164-0.068c0.052,0,0.095,0.018,0.129,0.044
			l2.961,2.136c0.378,0.269,0.877,0.289,1.274,0.059c1.124-0.666,2.341-1.178,3.609-1.498c0.439-0.119,0.777-0.479,0.857-0.926
			l0.64-3.641c0.018-0.113,0.113-0.189,0.225-0.189l3.627,0.02c0.112,0,0.207,0.078,0.223,0.19l0.585,3.597
			c0.075,0.457,0.409,0.828,0.856,0.943c1.299,0.334,2.537,0.849,3.688,1.535c0.395,0.235,0.886,0.221,1.267-0.045l2.983-2.12
			c0.043-0.026,0.086-0.044,0.129-0.043c0.035,0,0.104,0.009,0.164,0.069l2.553,2.582c0.077,0.077,0.086,0.197,0.024,0.293
			l-2.144,2.979c-0.269,0.369-0.289,0.869-0.058,1.267c0.665,1.132,1.159,2.349,1.479,3.618c0.109,0.448,0.479,0.786,0.926,0.857
			l3.615,0.631c0.111,0.018,0.188,0.113,0.188,0.225L159.034,179.723z M93.818,195.113c-7.37-0.039-13.389,5.918-13.428,13.291
			c-0.039,7.371,5.916,13.392,13.287,13.43c7.37,0.039,13.389-5.917,13.428-13.289C107.145,201.172,101.189,195.152,93.818,195.113z
			 M93.724,219.045c-5.813-0.03-10.513-4.779-10.481-10.595c0.03-5.815,4.778-10.515,10.593-10.483
			c5.814,0.03,10.513,4.779,10.482,10.595C104.286,214.377,99.538,219.076,93.724,219.045z M121.558,202.128l-4.341-0.76
			c-0.445-1.464-1.02-2.877-1.724-4.226l2.579-3.569c1.095-1.521,0.938-3.604-0.388-4.93l-3.833-3.874
			c-0.72-0.729-1.675-1.135-2.696-1.141c-0.802-0.004-1.566,0.238-2.215,0.7l-3.608,2.542c-1.393-0.744-2.851-1.359-4.361-1.82
			l-0.701-4.299c-0.301-1.85-1.884-3.203-3.759-3.215l-5.444-0.028c-1.875-0.009-3.473,1.327-3.793,3.176l-0.772,4.394
			c-1.451,0.445-2.863,1.031-4.212,1.749l-3.543-2.579c-0.644-0.469-1.418-0.719-2.22-0.724c-1.021-0.005-1.994,0.391-2.709,1.112
			l-3.887,3.833c-1.325,1.312-1.518,3.394-0.439,4.925l2.567,3.648c-0.719,1.354-1.295,2.761-1.742,4.22l-4.297,0.702
			c-1.852,0.3-3.204,1.885-3.214,3.76l-0.029,5.444c-0.01,1.876,1.327,3.474,3.175,3.794l4.392,0.773
			c0.445,1.451,1.032,2.863,1.75,4.212l-2.566,3.53c-1.095,1.521-0.937,3.604,0.388,4.93l3.833,3.875
			c0.721,0.729,1.675,1.135,2.697,1.139c0.802,0.005,1.565-0.236,2.215-0.699l3.646-2.566c1.303,0.691,2.671,1.255,4.077,1.701
			l0.701,4.351c0.301,1.851,1.885,3.204,3.76,3.214l5.456,0.029c1.875,0.01,3.473-1.327,3.793-3.174l0.76-4.343
			c1.464-0.445,2.876-1.02,4.225-1.724l3.568,2.58c0.645,0.469,1.419,0.719,2.221,0.723c1.021,0.005,1.98-0.391,2.708-1.111
			l3.874-3.834c1.326-1.312,1.519-3.393,0.439-4.925l-2.541-3.609c0.719-1.354,1.32-2.761,1.769-4.207l4.348-0.702
			c1.852-0.3,3.204-1.883,3.214-3.758l0.029-5.446C124.741,204.046,123.405,202.448,121.558,202.128z M121.225,211.348h-0.013
			c-0.001,0.168-0.118,0.31-0.286,0.336l-5.437,0.875c-0.686,0.113-1.231,0.615-1.403,1.273c-0.501,1.9-1.261,3.719-2.278,5.407
			c-0.353,0.594-0.33,1.331,0.067,1.901l3.171,4.518c0.09,0.131,0.075,0.324-0.042,0.439l-3.873,3.834
			c-0.091,0.091-0.182,0.104-0.246,0.102c-0.078,0-0.143-0.025-0.193-0.064l-4.471-3.218c-0.554-0.404-1.304-0.435-1.9-0.088
			c-1.699,1-3.526,1.741-5.43,2.222c-0.674,0.164-1.181,0.719-1.287,1.39l-0.947,5.428c-0.027,0.169-0.17,0.284-0.338,0.282
			l-5.443-0.027c-0.168-0.002-0.31-0.119-0.335-0.287l-0.877-5.437c-0.112-0.687-0.614-1.231-1.272-1.403
			c-1.847-0.488-3.627-1.235-5.29-2.201c-0.271-0.156-0.581-0.236-0.878-0.238c-0.35-0.002-0.712,0.101-1.011,0.318l-4.543,3.197
			c-0.064,0.038-0.129,0.063-0.194,0.062c-0.051,0-0.154-0.014-0.245-0.104l-3.833-3.875c-0.115-0.117-0.127-0.299-0.036-0.439
			l3.204-4.445c0.404-0.567,0.434-1.317,0.088-1.914c-1-1.688-1.766-3.515-2.247-5.418c-0.178-0.66-0.718-1.168-1.39-1.287
			l-5.465-0.961c-0.168-0.026-0.284-0.17-0.283-0.338l0.029-5.444c0.001-0.169,0.118-0.31,0.286-0.335l5.396-0.877
			c0.687-0.113,1.245-0.614,1.417-1.286c0.488-1.898,1.234-3.731,2.239-5.421c0.353-0.593,0.317-1.33-0.08-1.889l-3.196-4.543
			c-0.09-0.13-0.076-0.324,0.041-0.439l3.874-3.834c0.091-0.09,0.182-0.102,0.246-0.102c0.077,0,0.142,0.025,0.193,0.064
			l4.444,3.205c0.567,0.404,1.317,0.434,1.914,0.088c1.686-1,3.514-1.766,5.417-2.248c0.66-0.178,1.167-0.717,1.287-1.39l0.96-5.466
			c0.026-0.168,0.17-0.283,0.338-0.283l5.443,0.029c0.168,0,0.311,0.117,0.335,0.286l0.877,5.398
			c0.112,0.687,0.614,1.244,1.285,1.417c1.95,0.501,3.809,1.273,5.535,2.305c0.594,0.352,1.331,0.33,1.901-0.068l4.479-3.184
			c0.064-0.038,0.129-0.063,0.194-0.062c0.052,0,0.155,0.012,0.245,0.104l3.833,3.875c0.116,0.117,0.128,0.299,0.036,0.439
			l-3.217,4.472c-0.404,0.554-0.435,1.304-0.088,1.901c0.999,1.699,1.74,3.526,2.221,5.43c0.165,0.674,0.719,1.182,1.391,1.289
			l5.426,0.946c0.168,0.026,0.283,0.17,0.282,0.337L121.225,211.348z M81.952,164.828c2.33,0.012,4.231-1.87,4.244-4.2
			s-1.87-4.232-4.199-4.245c-2.33-0.012-4.232,1.871-4.244,4.201C77.74,162.914,79.623,164.816,81.952,164.828z M81.991,157.487
			c1.721,0.009,3.11,1.413,3.102,3.135c0,1.721-1.414,3.111-3.135,3.103s-3.11-1.415-3.102-3.136
			C78.865,158.869,80.271,157.478,81.991,157.487z"/>
	</g>
</g>
</svg>
