<?xml version="1.0" encoding="utf-8"?>
<!-- Generator: Adobe Illustrator 15.1.0, SVG Export Plug-In . SVG Version: 6.00 Build 0)  -->
<!DOCTYPE svg PUBLIC "-//W3C//DTD SVG 1.1//EN" "http://www.w3.org/Graphics/SVG/1.1/DTD/svg11.dtd">
<svg version="1.1" id="Layer_1" xmlns="http://www.w3.org/2000/svg" xmlns:xlink="http://www.w3.org/1999/xlink" x="0px" y="0px"
	 width="191.683px" height="213.576px" viewBox="0 0 191.683 213.576" enable-background="new 0 0 191.683 213.576"
	 xml:space="preserve">
<path fill-rule="evenodd" clip-rule="evenodd" fill="#33cafe94" d="M39.396,0l72.706,67.895l79.58,72.431l-14.875,16.15
	l-24.501,26.322L0,42.484L39.396,0z"/>
<g>
	<g>
		<path fill="#227d96" d="M110.908,119.498c-1.302,0-1.356,1.055-1.356,2.355l-0.043,10.203L96.526,132.1l-0.043-10.246
			c0-1.301-0.242-2.397-1.543-2.397c-1.302,0-1.5,1.097-1.5,2.397v10.203H65.562c-1.302,0-2.357,0.132-2.357,1.434
			c0,1.299,1.056,1.502,2.357,1.502h75.411c1.302,0,2.428,0.011,2.428-1.29c0-1.3-1.126-1.646-2.428-1.646h-28.494v-10.203
			C112.479,120.553,112.21,119.498,110.908,119.498z M169.939,19.028H37.282c-3.032,0-5.499,2.465-5.499,5.495v84.89
			c0,3.029,2.467,5.494,5.499,5.494h132.657c3.032,0,5.499-2.465,5.499-5.494v-84.89C175.438,21.493,172.972,19.028,169.939,19.028z
			 M172.631,111.294c0,0.426-0.359,0.785-0.785,0.785H35.282c-0.426,0-0.786-0.359-0.786-0.785V22.742
			c0-0.426,0.36-0.786,0.786-0.786h136.563c0.426,0,0.785,0.36,0.785,0.786V111.294z M161.119,29H43.566
			c-1.302,0-2.357,0.313-2.357,1.613c0,0.374,0.095,0.64,0.25,0.842v71.153c0,1.301,1.056,2.355,2.357,2.355l117.303,0.038
			c1.301,0,2.356-1.054,2.356-2.354V31.355C163.476,30.055,162.42,29,161.119,29z M160.454,102.025l-115.969,0.011l-0.031-70.017
			l116.043-0.032l0.075,58.5h0.038L160.454,102.025z M122.432,178.879c2.488,0,4.513-2.023,4.513-4.512s-2.024-4.512-4.513-4.512
			s-4.513,2.023-4.513,4.512c0,0.264,0.024,0.523,0.068,0.775l-5.606,3.381c-1.701-2.073-4.14-3.52-6.91-3.936v-6.92
			c2.067-0.691,3.562-2.646,3.562-4.942c0-2.874-2.338-5.211-5.212-5.211s-5.212,2.337-5.212,5.211c0,2.297,1.495,4.251,3.562,4.942
			v6.92c-3.776,0.566-6.932,3.049-8.448,6.42l-10.324-3.17c0.031-0.254,0.049-0.514,0.049-0.777c0-3.54-2.88-6.42-6.421-6.42
			c-3.54,0-6.421,2.88-6.421,6.42c0,3.539,2.881,6.42,6.421,6.42c2.099,0,3.964-1.012,5.137-2.572l10.674,3.277
			c-0.054,0.441-0.085,0.89-0.085,1.346c0,2.967,1.178,5.664,3.087,7.652l-4.65,4.949c-0.679-0.304-1.43-0.473-2.22-0.473
			c-3.015,0-5.467,2.451-5.467,5.465s2.452,5.465,5.467,5.465c3.014,0,5.467-2.451,5.467-5.465c0-1.025-0.284-1.984-0.777-2.805
			l4.805-5.111c1.588,0.882,3.414,1.387,5.357,1.387c1.856,0,3.605-0.461,5.145-1.272l4.793,7.287
			c-1.168,1.163-1.892,2.771-1.892,4.546c0,3.539,2.88,6.42,6.421,6.42s6.422-2.881,6.422-6.42c0-3.54-2.881-6.42-6.422-6.42
			c-0.577,0-1.136,0.078-1.668,0.221l-4.993-7.59c1.18-1.174,2.095-2.613,2.652-4.219l3.161,0.548
			c0.31,2.187,2.194,3.876,4.467,3.876c2.487,0,4.512-2.023,4.512-4.512s-2.024-4.512-4.513-4.512c-1.529,0-2.883,0.767-3.699,1.934
			l-3.327-0.576c0.004-0.125,0.01-0.25,0.01-0.375c0-1.477-0.293-2.886-0.82-4.175l5.635-3.399
			C120.462,178.535,121.407,178.879,122.432,178.879z M103.821,193.299c-4.284,0-7.77-3.484-7.77-7.768
			c0-4.284,3.485-7.769,7.77-7.769s7.77,3.484,7.77,7.769C111.591,189.814,108.105,193.299,103.821,193.299z M74.953,161.166
			c0-2.199-1.789-3.987-3.988-3.987c-1.303,0-2.461,0.628-3.189,1.598l-6.628-2.036c0.033-0.274,0.052-0.553,0.052-0.835
			c0-1.843-0.73-3.517-1.916-4.753l2.888-3.072c0.421,0.188,0.888,0.293,1.378,0.293c1.872,0,3.396-1.522,3.396-3.395
			c0-1.871-1.523-3.393-3.396-3.393s-3.395,1.521-3.395,3.393c0,0.637,0.177,1.232,0.482,1.742l-2.983,3.175
			c-0.986-0.548-2.121-0.861-3.327-0.861c-1.152,0-2.239,0.286-3.194,0.79l-2.977-4.525c0.725-0.723,1.175-1.721,1.175-2.822
			c0-2.199-1.789-3.988-3.988-3.988c-2.198,0-3.987,1.789-3.987,3.988c0,2.197,1.789,3.985,3.987,3.985
			c0.358,0,0.706-0.048,1.036-0.138l3.101,4.715c-0.732,0.729-1.301,1.623-1.646,2.62l-1.964-0.341
			c-0.192-1.358-1.362-2.406-2.773-2.406c-1.545,0-2.802,1.256-2.802,2.802c0,1.544,1.257,2.802,2.802,2.802
			c0.95,0,1.791-0.477,2.298-1.201l2.066,0.357c-0.003,0.078-0.007,0.155-0.007,0.233c0,0.917,0.183,1.792,0.51,2.593l-3.499,2.109
			c-0.471-0.357-1.058-0.571-1.693-0.571c-1.546,0-2.803,1.257-2.803,2.802s1.257,2.801,2.803,2.801
			c1.545,0,2.802-1.256,2.802-2.801c0-0.164-0.015-0.324-0.042-0.48l3.481-2.101c1.057,1.288,2.57,2.186,4.291,2.444v4.297
			c-1.284,0.43-2.213,1.643-2.213,3.069c0,1.784,1.452,3.235,3.237,3.235c1.784,0,3.236-1.451,3.236-3.235
			c0-1.427-0.928-2.64-2.212-3.069v-4.297c2.345-0.352,4.305-1.895,5.246-3.986l6.411,1.968c-0.019,0.158-0.03,0.319-0.03,0.483
			c0,2.197,1.789,3.986,3.987,3.986C73.164,165.152,74.953,163.363,74.953,161.166z M54.326,160.729
			c-2.661,0-4.825-2.164-4.825-4.824c0-2.659,2.165-4.823,4.825-4.823s4.825,2.164,4.825,4.823
			C59.151,158.565,56.986,160.729,54.326,160.729z M146.285,152.277c0.952,0,1.728-0.774,1.728-1.727
			c0-0.953-0.775-1.729-1.728-1.729c-0.953,0-1.728,0.775-1.728,1.729c0,0.1,0.009,0.199,0.025,0.297l-2.146,1.294
			c-0.651-0.794-1.585-1.347-2.646-1.507v-2.65c0.791-0.264,1.364-1.012,1.364-1.892c0-1.1-0.896-1.995-1.996-1.995
			s-1.995,0.896-1.995,1.995c0,0.88,0.572,1.627,1.364,1.892v2.65c-1.446,0.217-2.654,1.167-3.235,2.459l-3.953-1.215
			c0.013-0.098,0.019-0.197,0.019-0.297c0-1.355-1.103-2.459-2.458-2.459s-2.459,1.104-2.459,2.459s1.104,2.457,2.459,2.457
			c0.804,0,1.518-0.387,1.967-0.984l4.087,1.255c-0.021,0.169-0.033,0.341-0.033,0.515c0,1.137,0.451,2.169,1.183,2.931l-1.78,1.896
			c-0.26-0.117-0.548-0.182-0.851-0.182c-1.154,0-2.093,0.938-2.093,2.093c0,1.153,0.938,2.092,2.093,2.092s2.094-0.938,2.094-2.092
			c0-0.394-0.109-0.761-0.298-1.074l1.839-1.957c0.608,0.338,1.308,0.53,2.052,0.53c0.711,0,1.381-0.176,1.97-0.486l1.835,2.79
			c-0.447,0.445-0.724,1.062-0.724,1.74c0,1.355,1.103,2.458,2.458,2.458s2.459-1.103,2.459-2.458c0-1.354-1.104-2.458-2.459-2.458
			c-0.221,0-0.435,0.029-0.639,0.084l-1.912-2.906c0.452-0.448,0.803-1,1.016-1.614l1.211,0.21c0.118,0.837,0.84,1.483,1.71,1.483
			c0.952,0,1.728-0.774,1.728-1.728c0-0.952-0.775-1.727-1.728-1.727c-0.586,0-1.104,0.293-1.417,0.74l-1.273-0.221
			c0.002-0.048,0.004-0.096,0.004-0.145c0-0.564-0.112-1.104-0.314-1.598l2.157-1.302
			C145.53,152.146,145.893,152.277,146.285,152.277z M139.159,157.799c-1.641,0-2.975-1.334-2.975-2.975
			c0-1.639,1.334-2.974,2.975-2.974s2.975,1.335,2.975,2.974C142.134,156.465,140.8,157.799,139.159,157.799z"/>
	</g>
</g>
</svg>
