<svg id="Layer_5" enable-background="new 0 0 64 64" height="512" viewBox="0 0 64 64" width="512" xmlns="http://www.w3.org/2000/svg" xmlns:xlink="http://www.w3.org/1999/xlink"><linearGradient id="SVGID_1_" gradientUnits="userSpaceOnUse" x1="32" x2="32" y1="63" y2="1"><stop offset="0" stop-color="#9f2fff"/><stop offset="1" stop-color="#0bb1d3"/></linearGradient><path d="m57.597 33.555-4.846-.484-.491-1.529c.871-.671 1.577-1.54 2.055-2.542h.685c2.206 0 4-1.794 4-4 0-.901-.31-1.724-.815-2.393l.409-1.231c.269-.805.406-1.644.406-2.493 0-4.347-3.536-7.883-7.883-7.883h-12.117c-1.103 0-2 .897-2 2v3c0 2.414 1.721 4.434 4 4.899v.101c-2.206 0-4 1.794-4 4s1.794 4 4 4h.685c.478 1.002 1.184 1.871 2.055 2.542l-.469 1.458h-8.271v-10c0-2.206-1.794-4-4-4s-4 1.794-4 4v12c0 3.309 2.691 6 6 6h6v2h-14.031c-.833-.62-1.854-1-2.969-1h-3.105l-.229-2.064c-.376-3.385-2.583-6.2-5.666-7.411v-1.525c2.757 0 5-2.243 5-5v-1.586l1.174-1.173-1.823-4.556c1.006-.915 1.649-2.221 1.649-3.685 0-1.654-1.346-3-3-3h-3.856c-5.042 0-9.144 4.102-9.144 9.144 0 2.069.712 4.098 2.003 5.712l1.997 2.496v2.193c-1.206.712-2 2.058-2 3.574v7.881h-1c-1.654 0-3 1.346-3 3v14c0 1.654 1.346 3 3 3h56c1.654 0 3-1.346 3-3v-16-4.475c0-3.095-2.323-5.662-5.403-5.97zm-2.597-6.555h-.08c.047-.328.08-.66.08-1v-3c1.103 0 2 .897 2 2s-.897 2-2 2zm-16-11v-3h12.117c3.244 0 5.883 2.639 5.883 5.883 0 .634-.102 1.26-.303 1.861l-.185.557c-.467-.191-.977-.301-1.512-.301h-.143c-.415-1.8-1.79-3.264-3.645-3.728l-.338-.084c-.356-1.258-1.503-2.188-2.874-2.188h-1v2h1c.552 0 1 .448 1 1s-.448 1-1 1h-6c-1.654 0-3-1.346-3-3zm2 11c-1.103 0-2-.897-2-2s.897-2 2-2v3c0 .34.033.672.08 1zm2-1v-5h5c1.221 0 2.27-.736 2.737-1.785 1.333.339 2.263 1.533 2.263 2.908v3.877c0 2.757-2.243 5-5 5s-5-2.243-5-5zm5 7c.874 0 1.708-.168 2.48-.462l.462 1.437c-.47 1.214-1.629 2.025-2.942 2.025s-2.471-.81-2.941-2.026l.462-1.436c.772.294 1.605.462 2.479.462zm-17-12c1.103 0 2 .897 2 2v2h-4v-2c0-1.103.897-2 2-2zm-6 26v1h-4v-4h1c1.654 0 3 1.346 3 3zm-8.322-6.844.205 1.844h-3.883v-7c0-.095-.024-.186-.031-.28 2.026 1.068 3.446 3.068 3.709 5.436zm.148-17.397-.826.827v2.414c0 1.654-1.346 3-3 3h-2v2.56c-.609-.354-1.293-.548-2-.548v-1.913l1.498-7.49c.187-.932 1.011-1.609 1.961-1.609h1.541c.565 0 1.1-.115 1.607-.289zm-11.826-1.615c0-3.939 3.205-7.144 7.144-7.144h3.856c.552 0 1 .448 1 1 0 1.654-1.346 3-3 3h-1.541c-1.9 0-3.55 1.353-3.922 3.216l-1.097 5.483-.876-1.094c-1.008-1.26-1.564-2.845-1.564-4.461zm2 13.974c0-1.009.685-1.901 1.593-2.078.137-.026.275-.04.41-.04.464 0 .903.156 1.267.456.463.383.73.945.73 1.544v7.586l-1.707 1.707 1.414 1.414 1.707-1.707h6.586v4h-8c-2.206 0-4-1.794-4-4zm53 25.882h-56c-.552 0-1-.448-1-1v-14c0-.552.448-1 1-1h1.09c.478 2.833 2.942 5 5.91 5h16v-3c0-.712-.154-1.386-.424-2h16.848c-.27.614-.424 1.288-.424 2v3h14c1.538 0 2.937-.586 4-1.54v11.54c0 .552-.448 1-1 1zm-15-13v-1c0-1.654 1.346-3 3-3h1v4zm12 0h-6v-4h4.586l1.707 1.707 1.414-1.414-1.707-1.707v-4.586h-2v4h-7c-1.116 0-2.136.38-2.969 1h-4.031v-4h-8c-2.206 0-4-1.794-4-4v-8h4v6.586l-1.707 1.707 1.414 1.414 1.707-1.707h8.914c.836 1.811 2.641 3 4.672 3 2.006 0 3.794-1.158 4.644-2.931l4.754.476c2.053.205 3.602 1.917 3.602 3.98v4.475c0 2.206-1.794 4-4 4zm-35-33h4.586l3.293 3.293c.449.449 1.071.707 1.707.707 1.331 0 2.414-1.083 2.414-2.414v-1.586c1.654 0 3-1.346 3-3v-8c0-1.654-1.346-3-3-3h-12c-1.654 0-3 1.346-3 3v8c0 1.654 1.346 3 3 3zm-1-11c0-.552.448-1 1-1h12c.552 0 1 .448 1 1v8c0 .552-.448 1-1 1h-2v3.586c0 .338-.469.532-.707.293l-3.879-3.879h-5.414c-.552 0-1-.448-1-1zm12 5h-2v-2h2zm-4 0h-2v-2h2zm-4 0h-2v-2h2zm-12 48h2v2h-2zm-8 0h2v2h-2zm4 0h2v2h-2z" fill="url(#SVGID_1_)"/></svg>